# xmcd
#
# Track frame offsets: 
#        150
#        16065
#        31492
#        49825
#        66565
#        84592
#        99652
#        120205
#        137262
#        153005
#        176005
#
# Disc length: 2616 seconds
#
# Revision: 4
# Processed by: cddbd v1.5.2PL0 Copyright (c) Steve Scherf et al.
# Submitted via: ExactAudioCopy v1.1
#
DISCID=810a360b
DTITLE=近藤真彦 - 近藤真彦 THE BEST
DYEAR=1987
DGENRE=J-Pop
TTITLE0=ロイヤル・ストレート・フラッシュ
TTITLE1=一番野郎
TTITLE2=ケジメなさい
TTITLE3=永遠に秘密さ
TTITLE4=ヨイショッ！
TTITLE5=夢絆（梅艷芳《夢伴》原曲）
TTITLE6=大将（梅艷芳《愛將》原曲）
TTITLE7=純情物語（甄妮《身體哭泣》、呂方《在期待戀愛》原曲）
TTITLE8=青春
TTITLE9=Baby Rose（梅艷芳《BIG BAD GIRL》原曲）
TTITLE10=愚か者
EXTD=YEAR: 1987
EXTT0=
EXTT1=
EXTT2=
EXTT3=
EXTT4=
EXTT5=
EXTT6=
EXTT7=
EXTT8=
EXTT9=
EXTT10=
PLAYORDER=
